# 
# Generated by Sweet Home 3D - mi? ene 20 22:42:36 COT 2021
# http://www.sweethome3d.com/
# 
mtllib Parqueadero.mtl
g ground_1
usemtl ground_1
v 201.26944 0.0 395.07474
v 201.26944 0.0 694.57513
v 206.88635 0.0 692.8391
v 206.88635 0.0 403.3391
v 493.38635 0.0 403.3391
v 493.38635 0.0 692.8391
v 499.76944 0.0 694.57513
v 499.76944 0.0 395.07474
vn 0.0 1.0 0.0
vn 0.0 0.0 0.0
f 3//1 2//1 7//1
f 6//1 3//1 7//1
f 6//1 7//1 8//1
f 5//1 6//1 8//1
f 5//1 8//1 1//1
f 4//1 5//1 1//1
f 4//1 1//1 2//1
f 4//1 2//1 3//1
g wall_1_2
usemtl wall_1_2
v 205.01944 0.0 398.82513
v 205.01944 0.0 690.82513
v 208.76944 0.0 687.07513
v 208.76944 0.0 402.57513
vn 0.0 -1.0 0.0
f 12//3 11//3 10//3
f 12//3 10//3 9//3
g wall_1_3
usemtl wall_1_2
v 201.26944 0.0 395.07513
f 9//3 10//3 2//3
f 9//3 2//3 13//3
g wall_1_4
usemtl wall_1_2
v 208.76944 250.0 687.07513
v 205.01944 250.0 690.82513
v 208.76944 250.0 402.57513
v 205.01944 250.0 398.82513
vn 0.70710677 0.0 0.70710677
vn 1.0 0.0 0.0
vn 0.70710677 0.0 -0.70710677
f 10//4 11//4 14//4 15//4
f 11//5 12//5 16//5 14//5
f 12//6 9//6 17//6 16//6
g wall_1_5
usemtl wall_1_2
v 201.26944 250.0 694.57513
v 201.26944 250.0 395.07513
vn -1.0 0.0 0.0
f 13//7 2//7 18//7 19//7
f 2//4 10//4 15//4 18//4
f 9//6 13//6 19//6 17//6
g wall_1_6
usemtl wall_1_2
f 17//1 15//1 14//1
f 17//1 14//1 16//1
g wall_1_7
usemtl wall_1_2
f 19//1 18//1 15//1
f 19//1 15//1 17//1
g wall_2_8
usemtl wall_1_2
v 496.01944 0.0 398.82513
v 492.26944 0.0 402.57513
v 492.26944 0.0 687.07513
v 496.01944 0.0 690.82513
f 23//3 22//3 21//3
f 23//3 21//3 20//3
g wall_2_9
usemtl wall_1_2
v 499.76944 0.0 395.07513
f 7//3 23//3 20//3
f 7//3 20//3 24//3
g wall_2_10
usemtl wall_1_2
v 492.26944 250.0 402.57513
v 496.01944 250.0 398.82513
v 492.26944 250.0 687.07513
v 496.01944 250.0 690.82513
vn -0.70710677 0.0 -0.70710677
vn -0.70710677 0.0 0.70710677
f 20//8 21//8 25//8 26//8
f 21//7 22//7 27//7 25//7
f 22//9 23//9 28//9 27//9
g wall_2_11
usemtl wall_1_2
v 499.76944 250.0 395.07513
v 499.76944 250.0 694.57513
f 24//8 20//8 26//8 29//8
f 23//9 7//9 30//9 28//9
f 7//5 24//5 29//5 30//5
g wall_2_12
usemtl wall_1_2
f 26//1 25//1 27//1
f 26//1 27//1 28//1
g wall_2_13
usemtl wall_1_2
f 29//1 26//1 28//1
f 29//1 28//1 30//1
g wall_3_14
usemtl wall_1_2
v 225.02365 0.0 402.57513
v 225.02365 0.0 398.82513
f 32//3 31//3 12//3
f 32//3 12//3 9//3
v 475.02365 0.0 398.82513
v 475.02365 0.0 402.57513
f 20//3 21//3 34//3
f 20//3 34//3 33//3
g wall_3_15
usemtl wall_1_2
v 225.02365 0.0 395.07513
f 35//3 32//3 9//3
f 35//3 9//3 13//3
v 475.02365 0.0 395.07513
f 24//3 20//3 33//3
f 24//3 33//3 36//3
g wall_3_16
usemtl wall_1_2
v 225.02365 250.0 402.57513
v 225.02365 250.0 398.82513
vn 0.0 0.0 1.0
f 9//9 12//9 16//9 17//9
f 12//10 31//10 37//10 16//10
f 31//5 32//5 38//5 37//5
v 475.02365 250.0 402.57513
v 475.02365 250.0 398.82513
f 33//7 34//7 39//7 40//7
f 34//10 21//10 25//10 39//10
f 21//4 20//4 26//4 25//4
v 225.02365 205.0 398.82513
v 225.02365 205.0 402.57513
v 475.02365 205.0 402.57513
v 475.02365 205.0 398.82513
f 41//7 42//7 37//7 38//7
f 42//10 43//10 39//10 37//10
f 43//5 44//5 40//5 39//5
f 44//3 43//3 42//3
f 44//3 42//3 41//3
g wall_3_17
usemtl wall_1_2
v 225.02365 250.0 395.07513
vn 0.0 0.0 -1.0
f 13//9 9//9 17//9 19//9
f 32//5 35//5 45//5 38//5
f 35//11 13//11 19//11 45//11
v 475.02365 250.0 395.07513
f 36//7 33//7 40//7 46//7
f 20//4 24//4 29//4 26//4
f 24//11 36//11 46//11 29//11
v 225.02365 205.0 395.07513
v 475.02365 205.0 395.07513
f 47//7 41//7 38//7 45//7
f 44//5 48//5 46//5 40//5
f 48//11 47//11 45//11 46//11
f 48//3 44//3 41//3
f 48//3 41//3 47//3
g wall_3_18
usemtl wall_1_2
f 17//1 16//1 37//1
f 17//1 37//1 38//1
f 40//1 39//1 25//1
f 40//1 25//1 26//1
f 38//1 37//1 39//1
f 38//1 39//1 40//1
g wall_3_19
usemtl wall_1_2
f 19//1 17//1 38//1
f 19//1 38//1 45//1
f 46//1 40//1 26//1
f 46//1 26//1 29//1
f 45//1 38//1 40//1
f 45//1 40//1 46//1
g wall_4_20
usemtl wall_1_2
f 22//3 23//3 10//3
f 22//3 10//3 11//3
g wall_4_21
usemtl wall_1_2
f 23//3 7//3 2//3
f 23//3 2//3 10//3
g wall_4_22
usemtl wall_1_2
f 11//8 10//8 15//8 14//8
f 23//6 22//6 27//6 28//6
f 22//11 11//11 14//11 27//11
g wall_4_23
usemtl wall_1_2
f 10//8 2//8 18//8 15//8
f 2//10 7//10 30//10 18//10
f 7//6 23//6 28//6 30//6
g wall_4_24
usemtl wall_1_2
f 14//1 15//1 28//1
f 14//1 28//1 27//1
g wall_4_25
usemtl wall_1_2
f 15//1 18//1 30//1
f 15//1 30//1 28//1
g room_5_26
usemtl room_5_26
v 0.0 0.0 0.0
vt 10.344317 -20.166956 0
vt 10.344317 -34.641956 0
vt 24.669317 -34.641956 0
vt 24.669317 -20.166956 0
vt 0.0 0.0 0
f 4/1/5 4/1/5 5/4/5
f 5/4/1 4/1/1 6/3/1
f 6/3/1 4/1/1 3/2/1
g room_5_27
usemtl room_5_27
v 206.88635 250.0 403.3391
v 493.38635 250.0 403.3391
v 493.38635 250.0 692.8391
v 206.88635 250.0 692.8391
f 50//5 50//5 53//5
f 53//3 50//3 52//3
f 52//3 50//3 51//3
g Handle_28
usemtl fldkgrey
v 352.52365 57.749996 400.17526
v 352.52365 62.249996 400.17526
v 352.52365 62.249996 400.3253
v 352.52365 57.749996 400.3253
v 347.52365 62.249996 400.3253
v 347.52365 57.749996 400.3253
v 347.52365 62.249996 400.17526
v 347.52365 57.749996 400.17526
v 354.03006 59.300396 398.9175
v 354.03006 60.699596 398.9175
v 354.88855 60.613796 398.9175
v 354.88855 59.386196 398.9175
v 345.15875 59.386196 398.9175
v 345.15875 60.613796 398.9175
v 346.01724 60.699596 398.9175
v 346.01724 59.300396 398.9175
v 353.81656 59.281097 399.32935
v 353.81656 60.718895 399.32935
v 352.68146 60.807896 399.32935
v 352.68146 59.192097 399.32935
v 351.59775 60.8672 399.32935
v 351.59775 59.132797 399.32935
v 350.54495 60.896797 399.32935
v 350.54495 59.103195 399.32935
v 349.50235 60.896797 399.32935
v 349.50235 59.103195 399.32935
v 348.44955 60.8672 399.32935
v 348.44955 59.132797 399.32935
v 347.36584 60.807896 399.32935
v 347.36584 59.192097 399.32935
v 346.23074 60.718895 399.32935
v 346.23074 59.281097 399.32935
v 346.96014 60.779 398.9175
v 346.96014 59.220997 398.9175
v 347.86365 60.838497 398.9175
v 347.86365 59.1615 398.9175
v 348.73895 60.878197 398.9175
v 348.73895 59.1218 398.9175
v 349.59726 60.897995 398.9175
v 349.59726 59.101997 398.9175
v 350.45004 60.897995 398.9175
v 350.45004 59.101997 398.9175
v 351.30835 60.878197 398.9175
v 351.30835 59.1218 398.9175
v 352.18365 60.838497 398.9175
v 352.18365 59.1615 398.9175
v 353.08716 60.779 398.9175
v 353.08716 59.220997 398.9175
v 345.15945 60.613697 399.32935
v 345.15945 59.386295 399.32935
v 354.88785 59.386295 399.32935
v 354.88785 60.613697 399.32935
v 355.02365 60.577797 398.92426
v 355.02365 59.422195 398.92426
v 355.02365 59.422195 399.32257
v 355.02365 60.577797 399.32257
v 345.02365 60.577797 399.32257
v 345.02365 59.422195 399.32257
v 345.02365 59.422195 398.92426
v 345.02365 60.577797 398.92426
vn 1.0 -0.0 0.0000001
vn -0.0000001 0.0 1.0
vn -1.0 0.0 -0.0000001
vn 0.0000001 0.0 -1.0
vn 0.0000001 0.0 -0.99999994
vn -0.0000001 0.0 0.99999994
vn 0.48533055 0.0 -0.87433076
vn 0.48533052 0.0 -0.87433076
vn 0.4834146 0.0 0.8753916
vn -0.4834147 0.0 0.87539154
vn -0.4853304 0.0 -0.8743308
vn -0.48533034 0.0 -0.8743309
f 54//12 55//12 56//12
f 54//12 56//12 57//12
f 57//13 56//13 58//13
f 57//13 58//13 59//13
f 59//14 58//14 60//14
f 59//14 60//14 61//14
f 61//15 60//15 55//15
f 61//15 55//15 54//15
f 57//3 59//3 61//3
f 57//3 61//3 54//3
f 58//1 56//1 55//1
f 58//1 55//1 60//1
f 62//16 63//16 64//16
f 62//15 64//15 65//15
f 66//15 67//15 68//15
f 66//16 68//16 69//16
f 70//13 71//13 72//13
f 70//13 72//13 73//13
f 73//17 72//17 74//17
f 73//13 74//13 75//13
f 75//13 74//13 76//13
f 75//13 76//13 77//13
f 77//13 76//13 78//13
f 77//13 78//13 79//13
f 79//13 78//13 80//13
f 79//13 80//13 81//13
f 81//13 80//13 82//13
f 81//17 82//17 83//17
f 83//13 82//13 84//13
f 83//13 84//13 85//13
f 69//16 68//16 86//16
f 69//15 86//15 87//15
f 87//15 86//15 88//15
f 87//15 88//15 89//15
f 89//15 88//15 90//15
f 89//15 90//15 91//15
f 91//15 90//15 92//15
f 91//15 92//15 93//15
f 93//15 92//15 94//15
f 93//15 94//15 95//15
f 95//15 94//15 96//15
f 95//15 96//15 97//15
f 97//15 96//15 98//15
f 97//15 98//15 99//15
f 99//15 98//15 100//15
f 99//15 100//15 101//15
f 101//15 100//15 63//15
f 101//16 63//16 62//16
f 85//13 84//13 102//13
f 85//13 102//13 103//13
f 104//13 105//13 71//13
f 104//13 71//13 70//13
f 65//18 64//18 106//18
f 65//19 106//19 107//19
f 105//20 104//20 108//20
f 105//20 108//20 109//20
f 110//21 111//21 103//21
f 110//21 103//21 102//21
f 67//22 66//22 112//22
f 67//23 112//23 113//23
g Handle_30_29
usemtl fldkgrey
v 350.02365 60.749996 400.17526
v 350.02365 60.749996 399.32935
v 349.37415 60.374996 399.32935
v 349.37415 60.374996 400.17526
v 349.37415 59.624996 399.32935
v 349.37415 59.624996 400.17526
v 350.02365 59.249996 399.32935
v 350.02365 59.249996 400.17526
v 350.67316 59.624996 399.32935
v 350.67316 59.624996 400.17526
v 350.67316 60.374996 399.32935
v 350.67316 60.374996 400.17526
vn -0.09178442 -0.99577886 -0.0000259
vn -0.17723964 -0.9841677 0.0000489
vn -0.17814317 -0.98400456 0.0001356
vn -0.08717799 -0.9961927 0.0003437
vn -0.17812724 0.9840075 0.0001154
vn -0.08795245 0.9961247 -0.0000978
vn -0.089817226 0.9959582 0.0002471
vn -0.17903051 0.9838435 0.0000492
vn 0.09178442 0.99577886 -0.0000259
vn 0.17723964 0.9841677 0.0000489
vn 0.17814317 0.98400456 0.0001356
vn 0.08717902 0.9961925 0.000344
vn 0.070613116 0.99750376 0.0002117
vn 0.07481648 0.9971973 0.0003355
vn 0.042686515 0.9990884 0.0002984
vn 0.055222187 0.9984741 -0.0000688
vn 0.032159135 0.9994828 -0.0000184
vn -0.012792085 0.99991816 0.0002332
vn 0.017055972 0.9998545 0.0002237
vn 0.0076871295 0.9999705 0.0001024
vn -0.011530778 0.99993354 0.0000227
vn -0.070613116 0.99750376 0.0002117
vn -0.07481648 0.9971973 0.0003355
vn -0.032159135 0.9994828 -0.0000184
vn -0.042686515 0.9990884 0.0002984
vn -0.07481492 -0.99719745 0.0003347
vn -0.055221267 -0.9984741 -0.0000692
vn -0.07061165 -0.9975038 0.0002112
vn 0.07481492 -0.99719745 0.0003347
vn 0.07061165 -0.9975038 0.0002112
vn 0.055221267 -0.9984741 -0.0000692
vn 0.032161232 -0.9994827 -0.0000184
vn 0.042686537 -0.9990884 0.0002982
vn 0.01279366 -0.99991804 0.0002332
vn 0.011532513 -0.9999334 0.0000226
vn -0.6163769 -0.7874512 0.0000246
vn -0.79233146 0.6100909 -0.0000001
vn -0.6163577 0.7874663 0.0000247
vn -0.7929351 -0.6093061 -0.0000001
vn 0.08981643 -0.99595827 0.0002469
vn 0.08795245 -0.9961247 -0.0000978
vn -0.042686537 -0.9990884 0.0002982
vn -0.03216123 -0.9994827 -0.0000184
vn -0.055222187 0.9984741 -0.0000688
vn 0.6163577 -0.7874663 0.0000248
vn 0.7929351 0.6093061 0.0000001
vn 0.6163769 0.7874512 0.0000247
vn 0.79233146 -0.6100909 0.0000001
vn -0.017058073 -0.99985445 0.0002236
vn -0.0076882867 -0.9999705 0.0001024
vn 0.17812724 -0.9840075 0.0001155
vn 0.17903051 -0.9838435 0.0000492
vn -0.8660285 0.4999947 -0.0000001
vn -0.8660285 -0.4999947 -0.0000001
vn 0.8660285 -0.4999947 0.0000001
vn 0.8660285 0.4999947 0.0000001
f 85//24 103//25 66//26
f 85//24 66//26 69//27
f 102//28 84//29 68//30
f 102//28 68//30 67//31
f 71//32 105//33 64//34
f 71//32 64//34 63//35
f 72//36 71//32 63//35
f 72//36 63//35 100//37
f 74//38 72//36 98//39
f 74//38 98//39 96//40
f 78//41 76//42 94//43
f 78//41 94//43 92//44
f 68//30 84//29 82//45
f 68//30 82//45 86//46
f 90//47 80//48 78//41
f 90//47 78//41 92//44
f 87//49 89//50 83//51
f 76//42 74//38 96//40
f 76//42 96//40 94//43
f 101//52 73//53 99//54
f 97//55 75//56 77//57
f 97//55 77//57 95//58
f 111//59 110//60 113//61
f 111//59 113//61 112//62
f 62//63 70//64 73//53
f 62//63 73//53 101//52
f 81//65 83//51 89//50
f 81//65 89//50 91//66
f 88//67 82//45 80//48
f 88//67 80//48 90//47
f 99//54 73//53 75//56
f 99//54 75//56 97//55
f 107//68 106//69 109//70
f 107//68 109//70 108//71
f 100//37 98//39 72//36
f 79//72 81//65 91//66
f 79//72 91//66 93//73
f 86//46 82//45 88//67
f 83//51 85//24 69//27
f 83//51 69//27 87//49
f 77//57 79//72 93//73
f 77//57 93//73 95//58
f 104//74 65//75 107//68
f 104//74 107//68 108//71
f 64//34 105//33 109//70
f 64//34 109//70 106//69
f 66//26 103//25 111//59
f 66//26 111//59 112//62
f 102//28 67//31 113//61
f 102//28 113//61 110//60
f 104//74 70//64 62//63
f 104//74 62//63 65//75
f 114//1 115//1 116//76
f 114//1 116//76 117//76
f 117//76 116//76 118//77
f 117//76 118//77 119//77
f 119//77 118//77 120//3
f 119//77 120//3 121//3
f 121//3 120//3 122//78
f 121//3 122//78 123//78
f 123//78 122//78 124//79
f 123//78 124//79 125//79
f 125//79 124//79 115//1
f 125//79 115//1 114//1
g Grooves_30
usemtl flltgrey
v 367.52365 1.4999986 401.30038
v 367.52365 198.5 401.30038
v 367.52365 198.5 401.00037
v 367.52365 1.4999986 401.00037
v 264.52365 198.5 401.30038
v 264.52365 1.5000939 401.30038
v 264.52365 1.5000939 401.00034
v 264.52365 198.5 401.00034
v 400.52365 198.5 401.30038
v 400.52365 1.4999986 401.30038
v 400.52365 1.4999986 401.00037
v 400.52365 198.5 401.00037
v 366.52365 1.4999986 400.55032
v 366.52365 198.5 400.55032
v 366.52365 198.5 400.85034
v 366.52365 1.4999986 400.85034
v 333.52365 198.5 400.5503
v 333.52365 1.4999986 400.5503
v 333.52365 1.4999986 400.85034
v 333.52365 198.5 400.85034
v 332.52365 1.4999986 400.5503
v 332.52365 198.5 400.5503
v 332.52365 198.5 400.85034
v 332.52365 1.4999986 400.85034
v 265.52365 198.5 400.85034
v 265.52365 1.4999986 400.85034
v 264.52365 1.4999986 400.85034
v 264.52365 198.5 400.85034
v 299.52365 198.5 400.85034
v 299.52365 1.4999986 400.85034
v 298.52365 1.4999986 400.85034
v 298.52365 198.5 400.85034
v 367.52365 198.5 400.85034
v 367.52365 1.4999986 400.85034
v 401.52365 198.5 400.85034
v 401.52365 1.4999986 400.85034
v 400.52365 1.4999986 400.85034
v 400.52365 198.5 400.85034
v 435.52365 1.4999986 400.85034
v 434.52365 1.4999986 400.85034
v 434.52365 198.5 400.85034
v 435.52365 198.5 400.85034
v 367.52365 198.5 400.55032
v 367.52365 1.4999986 400.55032
v 264.52365 1.4999986 400.5503
v 264.52365 198.5 400.5503
v 400.52365 1.4999986 400.55032
v 400.52365 198.5 400.55032
v 265.52365 198.5 400.5503
v 265.52365 1.4999986 400.5503
v 401.52365 198.5 400.55032
v 401.52365 1.4999986 400.55032
v 298.52365 1.4999986 400.5503
v 298.52365 198.5 400.5503
v 434.52365 1.4999986 400.55032
v 434.52365 198.5 400.55032
v 299.52365 198.5 400.5503
v 299.52365 1.4999986 400.5503
v 435.52365 198.5 400.55032
v 435.52365 1.4999986 400.55032
v 435.52365 1.4999986 401.00037
v 435.52365 198.5 401.00037
v 434.52365 198.5 401.00037
v 434.52365 1.4999986 401.00037
v 401.52365 1.4999986 401.00037
v 401.52365 198.5 401.00037
v 366.52365 198.5 401.00037
v 366.52365 1.4999986 401.00037
v 333.52365 1.4999986 401.00034
v 333.52365 198.5 401.00034
v 332.52365 198.5 401.00034
v 332.52365 1.4999986 401.00034
v 299.52365 1.4999986 401.00034
v 299.52365 198.5 401.00034
v 298.52365 198.5 401.00034
v 298.52365 1.5000939 401.00034
v 265.52365 1.4999986 401.00034
v 265.52365 198.5 401.00034
v 366.52365 198.5 401.30038
v 366.52365 1.4999986 401.30038
v 333.52365 1.4999986 401.30038
v 333.52365 198.5 401.30038
v 332.52365 198.5 401.30038
v 332.52365 1.4999986 401.30038
v 435.52365 1.4999986 401.30038
v 435.52365 198.5 401.30038
v 299.52365 1.4999986 401.30038
v 299.52365 198.5 401.30038
v 434.52365 198.5 401.30038
v 434.52365 1.4999986 401.30038
v 298.52365 198.5 401.30038
v 298.52365 1.5000939 401.30038
v 401.52365 1.4999986 401.30038
v 401.52365 198.5 401.30038
v 265.52365 1.4999986 401.30038
v 265.52365 198.5 401.30038
vn -1.0 0.0 -0.0000001
vn 1.0 0.0 0.0000001
f 126//80 127//80 128//80
f 126//80 128//80 129//80
f 130//12 131//12 132//12
f 130//12 132//12 133//12
f 134//81 135//81 136//81
f 134//81 136//81 137//81
f 138//81 139//81 140//81
f 138//81 140//81 141//81
f 142//80 143//80 144//80
f 142//80 144//80 145//80
f 146//81 147//81 148//81
f 146//81 148//81 149//81
f 150//16 151//16 152//16
f 150//16 152//16 153//16
f 154//16 155//16 156//16
f 154//16 156//16 157//16
f 145//16 144//16 149//16
f 145//16 149//16 148//16
f 158//16 159//16 141//16
f 158//16 141//16 140//16
f 160//16 161//16 162//16
f 160//16 162//16 163//16
f 164//16 165//16 166//16
f 164//16 166//16 167//16
f 168//80 169//80 159//80
f 168//80 159//80 158//80
f 170//81 171//81 153//81
f 170//81 153//81 152//81
f 172//81 173//81 163//81
f 172//81 163//81 162//81
f 174//80 175//80 151//80
f 174//80 151//80 150//80
f 176//80 177//80 161//80
f 176//80 161//80 160//80
f 178//81 179//81 157//81
f 178//81 157//81 156//81
f 180//81 181//81 166//81
f 180//81 166//81 165//81
f 182//80 183//80 155//80
f 182//80 155//80 154//80
f 184//80 185//80 164//80
f 184//80 164//80 167//80
f 186//17 187//17 188//17
f 186//17 188//17 189//17
f 190//17 191//17 137//17
f 190//17 137//17 136//17
f 129//17 128//17 192//17
f 129//17 192//17 193//17
f 194//17 195//17 196//17
f 194//17 196//17 197//17
f 198//17 199//17 200//17
f 198//13 200//13 201//13
f 202//17 203//17 133//17
f 202//13 133//13 132//13
f 204//81 205//81 193//81
f 204//81 193//81 192//81
f 206//80 207//80 195//80
f 206//80 195//80 194//80
f 208//81 209//81 197//81
f 208//81 197//81 196//81
f 210//80 211//80 187//80
f 210//80 187//80 186//80
f 212//80 213//80 199//80
f 212//80 199//80 198//80
f 214//81 215//81 189//81
f 214//81 189//81 188//81
f 216//12 217//12 201//12
f 216//12 201//12 200//12
f 218//80 219//80 191//80
f 218//80 191//80 190//80
f 220//80 221//80 203//80
f 220//80 203//80 202//80
g Door_31
usemtl archwhite
v 470.02365 0.0 400.3253
v 470.02365 200.0 400.3253
v 470.02365 200.0 401.52542
v 470.02365 0.0 401.52542
v 230.02365 200.0 401.5254
v 230.02365 0.0 401.5254
v 231.52365 1.4999986 401.5254
v 231.52365 198.5 401.5254
v 230.02365 200.0 400.3253
v 230.02365 0.0 400.3253
v 468.52365 198.5 400.3253
v 231.52365 198.5 400.3253
v 231.52365 1.4999986 400.3253
v 468.52365 1.4999986 400.3253
v 468.52365 1.4999986 401.52542
v 468.52365 198.5 401.52542
v 231.52365 198.5 400.5503
v 231.52365 1.4999986 400.5503
v 468.52365 1.4999986 400.55032
v 468.52365 198.5 400.55032
v 468.52365 198.5 401.30038
v 468.52365 1.4999986 401.30038
v 231.52365 1.4999986 401.30038
v 231.52365 198.5 401.30038
vn 0.0000954 1.0 0
f 222//12 223//12 224//12
f 222//12 224//12 225//12
f 226//13 227//13 228//13
f 226//13 228//13 229//13
f 227//14 226//14 230//14
f 227//14 230//14 231//14
f 230//15 223//15 232//15
f 230//15 232//15 233//15
f 225//3 227//3 231//3
f 225//3 231//3 222//3
f 226//1 224//1 223//1
f 226//1 223//1 230//1
f 231//15 230//15 233//15
f 231//15 233//15 234//15
f 223//15 222//15 235//15
f 223//15 235//15 232//15
f 222//15 231//15 234//15
f 222//15 234//15 235//15
f 227//13 225//13 236//13
f 227//13 236//13 228//13
f 224//13 226//13 229//13
f 224//13 229//13 237//13
f 225//13 224//13 237//13
f 225//13 237//13 236//13
f 234//12 233//12 238//12
f 234//12 238//12 239//12
f 232//14 235//14 240//14
f 232//14 240//14 241//14
f 236//14 237//14 242//14
f 236//14 242//14 243//14
f 229//12 228//12 244//12
f 229//12 244//12 245//12
f 243//13 242//13 211//13
f 243//13 211//13 210//13
f 171//15 170//15 239//15
f 171//15 239//15 238//15
f 135//1 218//1 190//1
f 135//1 190//1 136//1
f 215//13 214//13 219//13
f 215//13 219//13 218//13
f 135//13 134//13 127//13
f 135//13 127//13 126//13
f 131//82 220//82 202//82
f 131//82 202//82 132//82
f 205//13 204//13 207//13
f 205//13 207//13 206//13
f 209//13 208//13 213//13
f 209//13 213//13 212//13
f 207//3 208//3 196//3
f 207//3 196//3 195//3
f 217//13 216//13 221//13
f 217//13 221//13 220//13
f 131//13 130//13 245//13
f 131//13 245//13 244//13
f 179//15 178//15 175//15
f 179//15 175//15 174//15
f 179//3 182//3 154//3
f 179//3 154//3 157//3
f 147//15 146//15 183//15
f 147//15 183//15 182//15
f 169//1 138//1 141//1
f 169//1 141//1 159//1
f 139//15 138//15 143//15
f 139//15 143//15 142//15
f 173//15 172//15 169//15
f 173//15 169//15 168//15
f 173//3 176//3 160//3
f 173//3 160//3 163//3
f 181//15 180//15 177//15
f 181//15 177//15 176//15
f 240//15 185//15 184//15
f 240//15 184//15 241//15
f 181//3 184//3 167//3
f 181//3 167//3 166//3
f 175//1 170//1 152//1
f 175//1 152//1 151//1
f 177//1 172//1 162//1
f 177//1 162//1 161//1
f 147//3 142//3 145//3
f 147//3 145//3 148//3
f 183//1 178//1 156//1
f 183//1 156//1 155//1
f 185//1 180//1 165//1
f 185//1 165//1 164//1
f 139//3 168//3 158//3
f 139//3 158//3 140//3
f 143//1 146//1 149//1
f 143//1 149//1 144//1
f 171//3 174//3 150//3
f 171//3 150//3 153//3
f 127//3 204//3 192//3
f 127//3 192//3 128//3
f 217//82 212//82 198//82
f 217//82 198//82 201//82
f 215//1 210//1 186//1
f 215//1 186//1 189//1
f 221//3 130//3 133//3
f 221//3 133//3 203//3
f 219//3 134//3 137//3
f 219//3 137//3 191//3
f 209//1 206//1 194//1
f 209//1 194//1 197//1
f 213//3 216//3 200//3
f 213//3 200//3 199//3
f 211//3 214//3 188//3
f 211//3 188//3 187//3
f 205//1 126//1 129//1
f 205//1 129//1 193//1
f 228//1 236//1 243//1
f 228//1 243//1 244//1
f 235//1 234//1 239//1
f 235//1 239//1 240//1
f 233//3 232//3 241//3
f 233//3 241//3 238//3
f 237//3 229//3 245//3
f 237//3 245//3 242//3
g Frame_32
usemtl archwhite2
v 475.02365 0.0 395.07477
v 475.02365 205.0 395.07477
v 475.02365 205.0 402.57553
v 475.02365 0.0 402.57553
v 225.02365 0.0 402.5755
v 225.02365 205.0 402.5755
v 225.02365 205.0 395.07474
v 225.02365 0.0 395.07474
v 230.02365 0.0 395.07474
v 230.02365 200.0 395.07474
v 470.02365 200.0 395.07477
v 470.02365 0.0 395.07477
v 230.02365 0.0 402.5755
v 470.02365 0.0 402.57553
v 230.02365 200.0 402.5755
v 470.02365 200.0 402.57553
f 246//12 247//12 248//12
f 246//12 248//12 249//12
f 250//14 251//14 252//14
f 250//14 252//14 253//14
f 254//16 253//16 252//16
f 255//15 254//15 252//15
f 255//15 252//15 247//15
f 256//15 255//15 247//15
f 256//16 247//16 246//16
f 256//15 246//15 257//15
f 258//3 250//3 253//3
f 258//3 253//3 254//3
f 251//1 248//1 247//1
f 251//1 247//1 252//1
f 249//3 259//3 257//3
f 249//3 257//3 246//3
f 258//12 254//12 255//12
f 258//12 255//12 260//12
f 261//3 260//3 255//3
f 261//3 255//3 256//3
f 257//14 259//14 261//14
f 257//14 261//14 256//14
f 259//17 249//17 248//17
f 261//13 259//13 248//13
f 261//13 248//13 251//13
f 260//13 261//13 251//13
f 260//17 251//17 250//17
f 260//13 250//13 258//13
g bottom_33
usemtl bottom
v 215.79092 0.0 628.104
v 260.79092 0.0 628.104
v 260.79092 0.0 671.104
v 215.79092 0.0 671.104
vt 1.0 0.0 0
vt 1.0 1.0 0
vt 0.0 1.0 0
f 262/5/3 263/6/3 264/7/3
f 262/5/3 264/7/3 265/8/3
g top_34
usemtl top
v 215.79092 50.0 628.104
v 215.79092 50.0 671.104
v 260.79092 50.0 671.104
v 260.79092 50.0 628.104
f 266/8/1 267/5/1 268/6/1
f 266/8/1 268/6/1 269/7/1
g left_35
usemtl left
f 262/5/7 265/6/7 267/7/7
f 262/5/7 267/7/7 266/8/7
g right_36
usemtl right
f 263/6/5 269/7/5 268/8/5
f 263/6/5 268/8/5 264/5/5
g back_37
usemtl back
f 262/6/11 266/7/11 269/8/11
f 262/6/11 269/8/11 263/5/11
g front_38
usemtl front
f 264/6/10 268/7/10 267/8/10
f 264/6/10 267/8/10 265/5/10
